<svg width="181" height="47" viewBox="0 0 181 47" fill="none" xmlns="http://www.w3.org/2000/svg">
<path d="M-0.00568151 47V0.454544H15.017C18.3201 0.454544 21.0777 1.09091 23.2898 2.36364C25.517 3.62121 27.1913 5.33333 28.3125 7.5C29.4489 9.66667 30.017 12.1061 30.017 14.8182C30.017 17.5303 29.4564 19.9773 28.3352 22.1591C27.214 24.3258 25.5474 26.0455 23.3352 27.3182C21.1231 28.5758 18.3731 29.2045 15.0852 29.2045H3.26705V25.3864H14.9716C17.411 25.3864 19.4337 24.9318 21.0398 24.0227C22.6458 23.0985 23.8428 21.8409 24.6307 20.25C25.4337 18.6591 25.8352 16.8485 25.8352 14.8182C25.8352 12.7879 25.4337 10.9773 24.6307 9.38636C23.8428 7.79545 22.6383 6.54545 21.017 5.63636C19.411 4.72727 17.3731 4.27272 14.9034 4.27272H4.24432V47H-0.00568151ZM39.9943 47V0.454544H55.017C58.3201 0.454544 61.0777 1.05303 63.2898 2.25C65.517 3.43182 67.1913 5.07575 68.3125 7.18182C69.4489 9.27273 70.017 11.6742 70.017 14.3864C70.017 17.0985 69.4489 19.4924 68.3125 21.5682C67.1913 23.6439 65.5246 25.2652 63.3125 26.4318C61.1004 27.5985 58.358 28.1818 55.0852 28.1818H42.2898V24.2955H54.9716C57.3958 24.2955 59.411 23.8939 61.017 23.0909C62.6383 22.2879 63.8428 21.1439 64.6307 19.6591C65.4337 18.1742 65.8352 16.4167 65.8352 14.3864C65.8352 12.3561 65.4337 10.5833 64.6307 9.06818C63.8277 7.53788 62.6155 6.35606 60.9943 5.52272C59.3883 4.68939 57.358 4.27272 54.9034 4.27272H44.2443V47H39.9943ZM60.517 26L71.9716 47H67.0625L55.7216 26H60.517ZM84.6193 0.454544V47H80.3693V0.454544H84.6193ZM96.9943 0.454544H101.903L118.79 41H119.199L136.085 0.454544H140.994V47H136.994V9.43182H136.631L120.926 47H117.062L101.358 9.43182H100.994V47H96.9943V0.454544ZM153.369 47V0.454544H180.369V4.27272H157.619V21.7955H178.938V25.6136H157.619V43.1818H180.824V47H153.369Z" fill="white"/>
<path d="M-0.00568151 47V0.454544H15.017C18.3201 0.454544 21.0777 1.09091 23.2898 2.36364C25.517 3.62121 27.1913 5.33333 28.3125 7.5C29.4489 9.66667 30.017 12.1061 30.017 14.8182C30.017 17.5303 29.4564 19.9773 28.3352 22.1591C27.214 24.3258 25.5474 26.0455 23.3352 27.3182C21.1231 28.5758 18.3731 29.2045 15.0852 29.2045H3.26705V25.3864H14.9716C17.411 25.3864 19.4337 24.9318 21.0398 24.0227C22.6458 23.0985 23.8428 21.8409 24.6307 20.25C25.4337 18.6591 25.8352 16.8485 25.8352 14.8182C25.8352 12.7879 25.4337 10.9773 24.6307 9.38636C23.8428 7.79545 22.6383 6.54545 21.017 5.63636C19.411 4.72727 17.3731 4.27272 14.9034 4.27272H4.24432V47H-0.00568151ZM39.9943 47V0.454544H55.017C58.3201 0.454544 61.0777 1.05303 63.2898 2.25C65.517 3.43182 67.1913 5.07575 68.3125 7.18182C69.4489 9.27273 70.017 11.6742 70.017 14.3864C70.017 17.0985 69.4489 19.4924 68.3125 21.5682C67.1913 23.6439 65.5246 25.2652 63.3125 26.4318C61.1004 27.5985 58.358 28.1818 55.0852 28.1818H42.2898V24.2955H54.9716C57.3958 24.2955 59.411 23.8939 61.017 23.0909C62.6383 22.2879 63.8428 21.1439 64.6307 19.6591C65.4337 18.1742 65.8352 16.4167 65.8352 14.3864C65.8352 12.3561 65.4337 10.5833 64.6307 9.06818C63.8277 7.53788 62.6155 6.35606 60.9943 5.52272C59.3883 4.68939 57.358 4.27272 54.9034 4.27272H44.2443V47H39.9943ZM60.517 26L71.9716 47H67.0625L55.7216 26H60.517ZM84.6193 0.454544V47H80.3693V0.454544H84.6193ZM96.9943 0.454544H101.903L118.79 41H119.199L136.085 0.454544H140.994V47H136.994V9.43182H136.631L120.926 47H117.062L101.358 9.43182H100.994V47H96.9943V0.454544ZM153.369 47V0.454544H180.369V4.27272H157.619V21.7955H178.938V25.6136H157.619V43.1818H180.824V47H153.369Z" fill="url(#paint0_linear_0_1)"/>
<defs>
<linearGradient id="paint0_linear_0_1" x1="89.5" y1="-15" x2="89.5" y2="34" gradientUnits="userSpaceOnUse">
<stop stop-color="#9CA0FA" stop-opacity="0"/>
<stop offset="1" stop-color="#9CA0FA"/>
</linearGradient>
</defs>
</svg>
